<?xml version="1.0" encoding="UTF-8"?>
<svg version="1.1" xmlns="http://www.w3.org/2000/svg" width="426" height="426">
<path d="M0 0 C140.25 0 280.5 0 425 0 C425 140.25 425 280.5 425 425 C284.75 425 144.5 425 0 425 C0 284.75 0 144.5 0 0 Z " fill="#000000" transform="translate(0,0)"/>
<path d="M0 0 C2.97 0 5.94 0 9 0 C9.00546844 1.46792244 9.00546844 1.46792244 9.01104736 2.96549988 C9.04799976 12.19116319 9.10577499 21.41649278 9.18390274 30.64190197 C9.22340034 35.38473577 9.25557759 40.12738327 9.27099609 44.87036133 C9.2861477 49.44823264 9.32056643 54.02559187 9.36830902 58.60323524 C9.3831383 60.34906881 9.3910419 62.09497547 9.39188385 63.84087181 C9.39425067 66.28794223 9.42130533 68.73359416 9.45410156 71.18041992 C9.4490712 71.90115189 9.44404083 72.62188385 9.43885803 73.36445618 C9.53834456 78.16681439 10.59662849 80.62447083 14 84 C16.86608129 85.43304064 18.81300783 85.30644155 22 85 C26.9349948 82.14166763 30.73108096 78.5348807 34.7109375 74.484375 C35.32393707 73.86854553 35.93693665 73.25271606 36.56851196 72.6182251 C38.50878977 70.66682919 40.44196331 68.70856646 42.375 66.75 C43.6961499 65.41880949 45.01775994 64.08807549 46.33984375 62.7578125 C49.56524241 59.51046462 52.78429196 56.2569432 56 53 C58.31 54.98 60.62 56.96 63 59 C60.9873575 63.02528499 59.24037168 64.892534 55.9921875 67.921875 C54.9952111 68.8740767 53.99914477 69.82723201 53.00390625 70.78125 C51.44125172 72.26977295 49.87372665 73.75117805 48.28955078 75.21679688 C41.18525297 81.19129244 41.18525297 81.19129244 38.125 89.44140625 C38.99286814 92.97099496 39.60876313 94.63313833 42.125 97.1875 C42.70507812 97.79980469 43.28515625 98.41210938 43.8828125 99.04296875 C44.58148438 99.68878906 45.28015625 100.33460938 46 101 C46.78246094 101.85078125 47.56492188 102.7015625 48.37109375 103.578125 C52.98100728 107.37462424 58.47843079 106.72690202 64.1796875 106.70703125 C65.3475882 106.72215256 66.51548889 106.73727386 67.71878052 106.75285339 C71.43771669 106.79573512 75.1558412 106.80456951 78.875 106.8125 C81.40106325 106.83564371 83.9271072 106.86100877 86.453125 106.88867188 C92.63542437 106.95152928 98.81740649 106.98645952 105 107 C105 109.97 105 112.94 105 116 C104.36630493 115.99920441 103.73260986 115.99840881 103.07971191 115.99758911 C96.4602017 115.99514381 89.84185853 116.03448253 83.22265625 116.09765625 C80.75526353 116.11577981 78.2877696 116.12339141 75.8203125 116.12011719 C72.26483399 116.11724987 68.71143913 116.15267554 65.15625 116.1953125 C64.06010376 116.18621857 62.96395752 116.17712463 61.83459473 116.16775513 C54.44553402 116.30671661 50.30923457 117.85226195 45 123 C44.07036438 123.87786667 44.07036438 123.87786667 43.12194824 124.77346802 C40.16336413 127.69481098 39.07023897 129.71436154 38.0625 133.8125 C38.56876034 139.33917534 42.62332728 142.72895935 46.40625 146.43701172 C48.26899777 148.26380572 50.10299773 150.11750704 51.9375 151.97265625 C55.60370288 155.67013851 59.29439278 159.34204153 63 163 C61.64062915 165.8605891 60.35479531 167.85927699 58 170 C53.61909479 168.33311899 50.82108763 165.03765843 47.625 161.75 C47.01865723 161.13608398 46.41231445 160.52216797 45.78759766 159.88964844 C43.19910155 157.26850464 40.62261036 154.63567211 38.04492188 152.00390625 C36.15903651 150.08186365 34.26719469 148.16582826 32.375 146.25 C31.79572754 145.65413086 31.21645508 145.05826172 30.61962891 144.44433594 C26.99279537 140.77372843 24.33792673 138.29845873 19.0625 137.625 C15.2631757 138.09022338 13.71361566 139.36391621 11 142 C9.4773861 145.04522779 9.82064829 148.22775586 9.79467773 151.57080078 C9.78477814 152.35137848 9.77487854 153.13195618 9.76467896 153.93618774 C9.73303022 156.52253155 9.70829324 159.10889375 9.68359375 161.6953125 C9.66302713 163.48607874 9.64203074 165.27684008 9.62062073 167.06759644 C9.56536987 171.78578743 9.5159739 176.50402245 9.46777344 181.22229004 C9.4175804 186.03495207 9.36188288 190.84755 9.30664062 195.66015625 C9.19902219 205.1067161 9.09758541 214.55333156 9 224 C6.03 224 3.06 224 0 224 C-0.00546844 222.51328545 -0.00546844 222.51328545 -0.01104736 220.99653625 C-0.04799842 211.65314621 -0.10577222 202.31008571 -0.18390274 192.9669466 C-0.22340173 188.16357881 -0.2555783 183.36039501 -0.27099609 178.55688477 C-0.28614677 173.92066182 -0.3205639 169.28494461 -0.36830902 164.64894676 C-0.38313925 162.88078394 -0.39104196 161.11254892 -0.39188385 159.34432411 C-0.39425038 156.86612743 -0.42130287 154.38933198 -0.45410156 151.91137695 C-0.4490712 151.18129425 -0.44404083 150.45121155 -0.43885803 149.69900513 C-0.5111222 146.16700551 -0.93167974 144.11085563 -2.79974365 141.07975769 C-5.33919651 138.67937983 -7.39191359 137.88621498 -10.89550781 137.69604492 C-19.77305215 138.97824245 -28.47030085 151.25803322 -34.5 157.375 C-35.71567649 158.60072609 -36.93181861 159.82599055 -38.1484375 161.05078125 C-41.10435586 164.02855682 -44.05389464 167.01251676 -47 170 C-49.31 168.02 -51.62 166.04 -54 164 C-49.35382024 158.40531783 -44.37171774 153.28332528 -39.1875 148.1875 C-37.65787536 146.68330553 -36.13041545 145.17690551 -34.60546875 143.66796875 C-33.93668701 143.01078857 -33.26790527 142.3536084 -32.57885742 141.67651367 C-29.69127 138.61032181 -29.3097511 135.6960691 -29.31640625 131.58984375 C-30.86034112 125.74053621 -36.78043297 120.94679093 -41.83441162 117.89077759 C-44.42432528 116.82546108 -46.4292813 116.72190367 -49.22753906 116.68115234 C-50.26831604 116.66128265 -51.30909302 116.64141296 -52.38140869 116.62094116 C-53.49820007 116.60938995 -54.61499146 116.59783875 -55.765625 116.5859375 C-56.91415955 116.56657135 -58.06269409 116.5472052 -59.24603271 116.5272522 C-62.9139463 116.46747874 -66.58189129 116.42107936 -70.25 116.375 C-72.73699284 116.33681822 -75.22397249 116.29776638 -77.7109375 116.2578125 C-83.80717453 116.16177895 -89.90349104 116.07672471 -96 116 C-96 113.03 -96 110.06 -96 107 C-95.04279556 106.99453156 -95.04279556 106.99453156 -94.06625366 106.98895264 C-87.41473178 106.94708986 -80.76389748 106.87771724 -74.11279297 106.79248047 C-71.63174319 106.76428304 -69.15060378 106.74306245 -66.66943359 106.72900391 C-63.09946853 106.70755838 -59.53057972 106.66089658 -55.9609375 106.609375 C-54.30123428 106.60753204 -54.30123428 106.60753204 -52.60800171 106.60565186 C-46.41140251 106.48823364 -42.73792533 106.10083256 -38 102 C-37.22914063 101.39800781 -36.45828125 100.79601562 -35.6640625 100.17578125 C-32.13659064 96.95240179 -29.46240278 94.42646196 -29.0625 89.5 C-29.5180676 85.85422234 -30.53094153 83.97554591 -33 81.28125 C-33.63107666 80.59095703 -34.26215332 79.90066406 -34.91235352 79.18945312 C-38.52749463 75.39801522 -42.21258923 71.68341648 -45.9375 68 C-46.71673828 67.22527344 -47.49597656 66.45054687 -48.29882812 65.65234375 C-50.1969242 63.76589243 -52.09733149 61.88183755 -54 60 C-52.02 57.69 -50.04 55.38 -48 53 C-43.48483334 56.67902468 -39.32366009 60.61398709 -35.2421875 64.765625 C-34.72771057 65.28797729 -34.21323364 65.81032959 -33.6831665 66.34851074 C-31.53252419 68.53566356 -29.38488982 70.72558558 -27.24658203 72.92480469 C-25.66855946 74.54521905 -24.08118099 76.15597727 -22.4921875 77.765625 C-22.0149826 78.26145081 -21.53777771 78.75727661 -21.04611206 79.26812744 C-18.23802449 82.09741582 -15.86114175 83.92891089 -12 85 C-7.24417265 84.77144836 -7.24417265 84.77144836 -3.125 82.625 C-0.5258389 78.87065619 -0.82967218 74.86833785 -0.79467773 70.49926758 C-0.78477814 69.73805099 -0.77487854 68.97683441 -0.76467896 68.19255066 C-0.73309271 65.67657582 -0.70831791 63.16058211 -0.68359375 60.64453125 C-0.66302174 58.90003468 -0.6420252 57.15554307 -0.62062073 55.41105652 C-0.56542558 50.81946833 -0.51600501 46.22783535 -0.46777344 41.63616943 C-0.41753976 36.95076511 -0.36186343 32.26542583 -0.30664062 27.58007812 C-0.19909032 18.38677432 -0.09763838 9.19341404 0 0 Z " fill="#ECECEC" transform="translate(208,101)"/>
<path d="M0 0 C2.50285056 1.69823046 4.89254316 3.47241423 7.26171875 5.3515625 C7.8340625 5.78597656 8.40640625 6.22039062 8.99609375 6.66796875 C11.66461602 8.93921102 12.26609176 10.37605137 12.88671875 13.8515625 C12.11629698 18.16592443 10.61661074 19.81475379 7.26171875 22.3515625 C6.51019531 22.93164062 5.75867188 23.51171875 4.984375 24.109375 C-4.41015244 31.02861092 -13.976548 34.65343374 -25.73828125 33.3515625 C-35.61488882 30.54942066 -43.8737211 24.93087077 -50.73828125 17.3515625 C-51.55078125 14.1015625 -51.55078125 14.1015625 -50.73828125 10.3515625 C-37.59427997 -5.18494238 -17.8649112 -10.75462557 0 0 Z " fill="#080808" transform="translate(231.73828125,198.6484375)"/>
<path d="M0 0 C4.86108919 2.29796944 7.70203056 5.13891081 10 10 C10.77379561 15.29813119 10.67768515 19.56643525 8.375 24.4375 C3.89310879 29.27322472 0.69370399 31.26073911 -5.9375 31.625 C-11.17947313 31.44918227 -14.10866383 30.42695472 -17.73046875 26.62890625 C-21.18829174 22.19225336 -21.44322473 17.9322027 -21.3125 12.43359375 C-20.67686301 7.48357071 -17.96210726 4.89170917 -14.4375 1.625 C-9.56643525 -0.67768515 -5.29813119 -0.77379561 0 0 Z " fill="#EBEBEB" transform="translate(218,197)"/>
</svg>
