<svg version="1.1" id="Layer_1" xmlns="http://www.w3.org/2000/svg" xmlns:xlink="http://www.w3.org/1999/xlink" x="0px" y="0px"
	 width="100%" viewBox="0 0 852 852" enable-background="new 0 0 852 852" xml:space="preserve">
<path fill="#000000" opacity="1.000000" stroke="none" 
	d="
M560.000000,853.000000 
	C373.333374,853.000000 187.166779,853.000000 1.000125,853.000000 
	C1.000083,569.000122 1.000083,285.000275 1.000042,1.000315 
	C284.999786,1.000210 568.999573,1.000210 852.999512,1.000105 
	C852.999634,284.999695 852.999634,568.999390 852.999817,852.999512 
	C755.500000,853.000000 658.000000,853.000000 560.000000,853.000000 
M418.233948,93.495483 
	C417.930115,116.132133 417.547516,138.768051 417.339294,161.405579 
	C416.934784,205.379623 416.648834,249.354752 416.250763,293.328857 
	C416.208618,297.982941 416.502258,302.840454 415.296844,307.235138 
	C413.620392,313.346985 412.308411,321.259338 407.937347,324.582916 
	C398.390442,331.841888 386.595551,335.421570 374.773865,329.164368 
	C368.112030,325.638306 361.529541,321.330933 356.170441,316.088409 
	C336.890717,297.228088 318.275574,277.690369 299.141022,258.678650 
	C290.676544,250.268524 281.569916,242.504623 272.240570,233.977310 
	C265.849396,241.386017 259.934692,248.242386 253.791885,255.363144 
	C255.208740,256.877106 256.291992,258.100037 257.443665,259.254730 
	C265.678955,267.511536 274.034485,275.651489 282.148865,284.025208 
	C295.352325,297.650574 308.896271,310.993195 321.368530,325.266052 
	C332.661407,338.189178 332.519897,353.005615 321.364624,366.040253 
	C315.155060,373.295929 307.437775,379.288330 300.224335,385.650940 
	C291.091949,393.706116 280.042145,397.327881 268.128876,397.607117 
	C237.831635,398.317139 207.524811,398.646667 177.220459,399.015045 
	C161.064423,399.211487 144.905457,399.163635 128.748016,399.259399 
	C127.651878,399.265869 126.557419,399.553467 125.543953,399.698608 
	C125.543953,408.792786 125.543953,417.551819 125.543953,426.444885 
	C126.453110,426.574066 127.086731,426.734375 127.722710,426.744324 
	C155.859909,427.184143 183.996918,427.641510 212.134888,428.027527 
	C229.957199,428.272034 247.784744,428.250397 265.602142,428.675629 
	C272.050690,428.829498 278.785675,428.935242 284.850952,430.808319 
	C299.312927,435.274597 309.781067,445.649719 319.555267,456.708771 
	C334.729645,473.877808 329.422546,495.853455 316.625641,507.727051 
	C303.577454,519.833801 291.186371,532.664734 278.788940,545.451355 
	C270.248627,554.259766 262.187592,563.532959 253.405807,573.153259 
	C260.722229,579.486023 267.564606,585.408386 274.618286,591.513672 
	C276.016998,590.285095 277.197968,589.391296 278.211365,588.336426 
	C297.352539,568.413330 316.568878,548.561157 335.564301,528.499817 
	C347.261414,516.146362 358.730438,503.503510 374.673035,496.523193 
	C379.077728,494.594635 384.370514,493.197571 389.049286,493.657562 
	C406.914062,495.413910 416.862427,507.170319 417.043152,525.770569 
	C417.507660,573.574219 417.945587,621.378296 418.294739,669.182861 
	C418.496735,696.838318 418.502930,724.495056 418.612335,752.151184 
	C418.618103,753.610779 418.764740,755.069824 418.836914,756.368774 
	C428.109802,756.368774 436.999268,756.368774 446.902191,756.368774 
	C446.902191,736.653503 446.790741,717.347412 446.926392,698.043152 
	C447.175690,662.567810 447.580139,627.093567 447.900848,591.618713 
	C448.099609,569.632874 448.531921,547.644470 448.343140,525.661621 
	C448.227966,512.247864 452.735321,501.993439 465.245667,496.104401 
	C470.433228,493.662445 475.701874,492.385376 481.637299,493.741608 
	C490.368439,495.736664 497.876343,499.815216 504.088348,506.027802 
	C524.209656,526.151123 544.156982,546.448608 564.148010,566.702026 
	C572.556702,575.221069 580.542358,584.209534 591.378723,589.896667 
	C594.246155,591.401489 596.595825,591.674316 598.713013,588.723999 
	C601.899658,584.283447 605.193298,579.918823 608.483887,575.553894 
	C610.987671,572.232605 610.595154,569.815125 607.432251,566.710510 
	C588.411011,548.040222 569.526062,529.225891 550.896790,510.165253 
	C546.302124,505.464233 542.357178,499.952240 538.957581,494.304962 
	C534.964783,487.672455 534.255188,480.589905 537.313660,472.901001 
	C540.816467,464.095276 546.597900,457.292267 553.183350,450.847076 
	C564.052917,440.209137 575.791992,430.750061 591.380493,428.799744 
	C602.705872,427.382812 614.227234,427.174835 625.666199,427.088165 
	C661.990112,426.812927 698.316406,426.849426 734.641785,426.753021 
	C736.092346,426.749176 737.542542,426.618713 739.152161,426.539398 
	C739.152161,417.344299 739.152161,408.436676 739.152161,399.461884 
	C738.183533,399.368744 737.531799,399.256256 736.879211,399.250519 
	C706.404602,398.981506 675.930115,398.680786 645.455078,398.477905 
	C629.791443,398.373596 614.125671,398.549011 598.462646,398.402405 
	C587.683594,398.301544 576.661804,397.413361 568.349365,389.911346 
	C558.878479,381.363800 549.870422,372.114532 541.901978,362.175537 
	C538.234314,357.600922 534.958191,350.144806 536.006531,344.894226 
	C538.153625,334.140900 542.441650,323.496338 550.993835,315.576965 
	C563.077087,304.387695 575.272705,293.319397 587.324524,282.096588 
	C595.734924,274.264679 604.163025,266.380707 609.330566,255.861313 
	C609.979065,254.541260 609.839478,251.771591 608.914551,250.913361 
	C602.859436,245.294647 596.487549,240.017227 589.978943,234.421768 
	C588.261353,236.038406 586.785767,237.348862 585.397400,238.746033 
	C568.027344,256.226440 550.699341,273.748749 533.299805,291.199707 
	C519.678040,304.861725 506.494476,319.024231 489.906006,329.327942 
	C480.619171,335.096375 465.199402,333.139923 457.828613,325.150177 
	C451.092682,317.848633 447.786865,309.202515 447.672546,299.317200 
	C447.399048,275.670471 447.122772,252.023682 446.908600,228.376389 
	C446.695892,204.891861 446.516022,181.406876 446.397736,157.921707 
	C446.261810,130.929550 446.213745,103.936951 446.108582,76.944611 
	C446.102997,75.509392 445.921814,74.074867 445.810577,72.469452 
	C436.687286,72.469452 427.923492,72.469452 418.235474,72.469452 
	C418.235474,79.260490 418.235474,85.877670 418.233948,93.495483 
z"/>
<path fill="#E8E8E8" opacity="1.000000" stroke="none" 
	d="
M418.234711,92.995163 
	C418.235474,85.877670 418.235474,79.260490 418.235474,72.469452 
	C427.923492,72.469452 436.687286,72.469452 445.810577,72.469452 
	C445.921814,74.074867 446.102997,75.509392 446.108582,76.944611 
	C446.213745,103.936951 446.261810,130.929550 446.397736,157.921707 
	C446.516022,181.406876 446.695892,204.891861 446.908600,228.376389 
	C447.122772,252.023682 447.399048,275.670471 447.672546,299.317200 
	C447.786865,309.202515 451.092682,317.848633 457.828613,325.150177 
	C465.199402,333.139923 480.619171,335.096375 489.906006,329.327942 
	C506.494476,319.024231 519.678040,304.861725 533.299805,291.199707 
	C550.699341,273.748749 568.027344,256.226440 585.397400,238.746033 
	C586.785767,237.348862 588.261353,236.038406 589.978943,234.421768 
	C596.487549,240.017227 602.859436,245.294647 608.914551,250.913361 
	C609.839478,251.771591 609.979065,254.541260 609.330566,255.861313 
	C604.163025,266.380707 595.734924,274.264679 587.324524,282.096588 
	C575.272705,293.319397 563.077087,304.387695 550.993835,315.576965 
	C542.441650,323.496338 538.153625,334.140900 536.006531,344.894226 
	C534.958191,350.144806 538.234314,357.600922 541.901978,362.175537 
	C549.870422,372.114532 558.878479,381.363800 568.349365,389.911346 
	C576.661804,397.413361 587.683594,398.301544 598.462646,398.402405 
	C614.125671,398.549011 629.791443,398.373596 645.455078,398.477905 
	C675.930115,398.680786 706.404602,398.981506 736.879211,399.250519 
	C737.531799,399.256256 738.183533,399.368744 739.152161,399.461884 
	C739.152161,408.436676 739.152161,417.344299 739.152161,426.539398 
	C737.542542,426.618713 736.092346,426.749176 734.641785,426.753021 
	C698.316406,426.849426 661.990112,426.812927 625.666199,427.088165 
	C614.227234,427.174835 602.705872,427.382812 591.380493,428.799744 
	C575.791992,430.750061 564.052917,440.209137 553.183350,450.847076 
	C546.597900,457.292267 540.816467,464.095276 537.313660,472.901001 
	C534.255188,480.589905 534.964783,487.672455 538.957581,494.304962 
	C542.357178,499.952240 546.302124,505.464233 550.896790,510.165253 
	C569.526062,529.225891 588.411011,548.040222 607.432251,566.710510 
	C610.595154,569.815125 610.987671,572.232605 608.483887,575.553894 
	C605.193298,579.918823 601.899658,584.283447 598.713013,588.723999 
	C596.595825,591.674316 594.246155,591.401489 591.378723,589.896667 
	C580.542358,584.209534 572.556702,575.221069 564.148010,566.702026 
	C544.156982,546.448608 524.209656,526.151123 504.088348,506.027802 
	C497.876343,499.815216 490.368439,495.736664 481.637299,493.741608 
	C475.701874,492.385376 470.433228,493.662445 465.245667,496.104401 
	C452.735321,501.993439 448.227966,512.247864 448.343140,525.661621 
	C448.531921,547.644470 448.099609,569.632874 447.900848,591.618713 
	C447.580139,627.093567 447.175690,662.567810 446.926392,698.043152 
	C446.790741,717.347412 446.902191,736.653503 446.902191,756.368774 
	C436.999268,756.368774 428.109802,756.368774 418.836914,756.368774 
	C418.764740,755.069824 418.618103,753.610779 418.612335,752.151184 
	C418.502930,724.495056 418.496735,696.838318 418.294739,669.182861 
	C417.945587,621.378296 417.507660,573.574219 417.043152,525.770569 
	C416.862427,507.170319 406.914062,495.413910 389.049286,493.657562 
	C384.370514,493.197571 379.077728,494.594635 374.673035,496.523193 
	C358.730438,503.503510 347.261414,516.146362 335.564301,528.499817 
	C316.568878,548.561157 297.352539,568.413330 278.211365,588.336426 
	C277.197968,589.391296 276.016998,590.285095 274.618286,591.513672 
	C267.564606,585.408386 260.722229,579.486023 253.405807,573.153259 
	C262.187592,563.532959 270.248627,554.259766 278.788940,545.451355 
	C291.186371,532.664734 303.577454,519.833801 316.625641,507.727051 
	C329.422546,495.853455 334.729645,473.877808 319.555267,456.708771 
	C309.781067,445.649719 299.312927,435.274597 284.850952,430.808319 
	C278.785675,428.935242 272.050690,428.829498 265.602142,428.675629 
	C247.784744,428.250397 229.957199,428.272034 212.134888,428.027527 
	C183.996918,427.641510 155.859909,427.184143 127.722710,426.744324 
	C127.086731,426.734375 126.453110,426.574066 125.543953,426.444885 
	C125.543953,417.551819 125.543953,408.792786 125.543953,399.698608 
	C126.557419,399.553467 127.651878,399.265869 128.748016,399.259399 
	C144.905457,399.163635 161.064423,399.211487 177.220459,399.015045 
	C207.524811,398.646667 237.831635,398.317139 268.128876,397.607117 
	C280.042145,397.327881 291.091949,393.706116 300.224335,385.650940 
	C307.437775,379.288330 315.155060,373.295929 321.364624,366.040253 
	C332.519897,353.005615 332.661407,338.189178 321.368530,325.266052 
	C308.896271,310.993195 295.352325,297.650574 282.148865,284.025208 
	C274.034485,275.651489 265.678955,267.511536 257.443665,259.254730 
	C256.291992,258.100037 255.208740,256.877106 253.791885,255.363144 
	C259.934692,248.242386 265.849396,241.386017 272.240570,233.977310 
	C281.569916,242.504623 290.676544,250.268524 299.141022,258.678650 
	C318.275574,277.690369 336.890717,297.228088 356.170441,316.088409 
	C361.529541,321.330933 368.112030,325.638306 374.773865,329.164368 
	C386.595551,335.421570 398.390442,331.841888 407.937347,324.582916 
	C412.308411,321.259338 413.620392,313.346985 415.296844,307.235138 
	C416.502258,302.840454 416.208618,297.982941 416.250763,293.328857 
	C416.648834,249.354752 416.934784,205.379623 417.339294,161.405579 
	C417.547516,138.768051 417.930115,116.132133 418.234711,92.995163 
M393.698761,465.811951 
	C413.070923,475.498138 433.206055,474.737213 453.574524,470.051849 
	C479.404541,464.110260 500.832031,450.016479 520.417786,432.934906 
	C533.473816,421.548126 533.600647,404.869263 520.640869,393.265259 
	C512.125122,385.640381 502.915527,378.631836 493.345367,372.373993 
	C468.671997,356.240356 441.525970,350.167572 412.403015,355.528229 
	C386.620789,360.273956 364.950562,373.178528 346.326447,391.356171 
	C340.419006,397.122009 333.625977,402.689392 334.485718,412.147430 
	C334.893188,416.630493 335.179077,422.239258 337.868591,425.216370 
	C353.393066,442.401093 371.585266,456.230316 393.698761,465.811951 
z"/>
<path fill="#060606" opacity="1.000000" stroke="none" 
	d="
M393.366882,465.623932 
	C371.585266,456.230316 353.393066,442.401093 337.868591,425.216370 
	C335.179077,422.239258 334.893188,416.630493 334.485718,412.147430 
	C333.625977,402.689392 340.419006,397.122009 346.326447,391.356171 
	C364.950562,373.178528 386.620789,360.273956 412.403015,355.528229 
	C441.525970,350.167572 468.671997,356.240356 493.345367,372.373993 
	C502.915527,378.631836 512.125122,385.640381 520.640869,393.265259 
	C533.600647,404.869263 533.473816,421.548126 520.417786,432.934906 
	C500.832031,450.016479 479.404541,464.110260 453.574524,470.051849 
	C433.206055,474.737213 413.070923,475.498138 393.366882,465.623932 
M478.066559,432.221344 
	C478.880188,428.491699 480.093262,424.797852 480.431549,421.025574 
	C481.396667,410.262756 482.252167,399.450592 476.232117,389.570465 
	C465.230835,371.515045 449.701874,361.934723 428.112091,364.420776 
	C419.262177,365.439789 410.271820,366.612213 402.962585,372.664276 
	C388.954956,384.262695 382.235779,398.471313 383.989960,417.241791 
	C386.501190,444.112579 402.409729,460.780151 428.646942,462.167542 
	C446.322693,463.102173 469.742767,453.008423 478.066559,432.221344 
z"/>
<path fill="#E8E8E8" opacity="1.000000" stroke="none" 
	d="
M477.958862,432.605530 
	C469.742767,453.008423 446.322693,463.102173 428.646942,462.167542 
	C402.409729,460.780151 386.501190,444.112579 383.989960,417.241791 
	C382.235779,398.471313 388.954956,384.262695 402.962585,372.664276 
	C410.271820,366.612213 419.262177,365.439789 428.112091,364.420776 
	C449.701874,361.934723 465.230835,371.515045 476.232117,389.570465 
	C482.252167,399.450592 481.396667,410.262756 480.431549,421.025574 
	C480.093262,424.797852 478.880188,428.491699 477.958862,432.605530 
z"/>
</svg>